<mxfile host="app.diagrams.net" modified="2023-11-02T00:51:23.926Z" agent="Mozilla/5.0 (Windows NT 10.0; Win64; x64; rv:109.0) Gecko/20100101 Firefox/118.0" etag="jQa-9PVJcur23r71OyUx" version="22.0.8" type="github">
  <diagram name="Page-1" id="81QKD1JdrYzsXkCO8P2q">
    <mxGraphModel dx="868" dy="456" grid="1" gridSize="10" guides="1" tooltips="1" connect="1" arrows="1" fold="1" page="1" pageScale="1" pageWidth="850" pageHeight="1100" math="0" shadow="0">
      <root>
        <mxCell id="0" />
        <mxCell id="1" parent="0" />
        <mxCell id="-CrBlhv4OkF7-q59_KBk-4" value="" style="edgeStyle=orthogonalEdgeStyle;rounded=0;orthogonalLoop=1;jettySize=auto;html=1;" parent="1" source="-CrBlhv4OkF7-q59_KBk-1" target="-CrBlhv4OkF7-q59_KBk-3" edge="1">
          <mxGeometry relative="1" as="geometry" />
        </mxCell>
        <mxCell id="-CrBlhv4OkF7-q59_KBk-1" value="&lt;b&gt;MULAI&lt;/b&gt;" style="ellipse;whiteSpace=wrap;html=1;" parent="1" vertex="1">
          <mxGeometry x="365" y="40" width="120" height="80" as="geometry" />
        </mxCell>
        <mxCell id="-CrBlhv4OkF7-q59_KBk-6" value="" style="edgeStyle=orthogonalEdgeStyle;rounded=0;orthogonalLoop=1;jettySize=auto;html=1;" parent="1" source="-CrBlhv4OkF7-q59_KBk-3" target="-CrBlhv4OkF7-q59_KBk-5" edge="1">
          <mxGeometry relative="1" as="geometry" />
        </mxCell>
        <mxCell id="-CrBlhv4OkF7-q59_KBk-3" value="&lt;b&gt;&amp;nbsp;BILANGAN&lt;/b&gt;" style="shape=parallelogram;perimeter=parallelogramPerimeter;whiteSpace=wrap;html=1;fixedSize=1;" parent="1" vertex="1">
          <mxGeometry x="355" y="210" width="140" height="60" as="geometry" />
        </mxCell>
        <mxCell id="93rVwMdLjO7wPDeEWnpp-5" value="tidak" style="edgeStyle=orthogonalEdgeStyle;rounded=0;orthogonalLoop=1;jettySize=auto;html=1;fontStyle=1" edge="1" parent="1" source="-CrBlhv4OkF7-q59_KBk-5" target="93rVwMdLjO7wPDeEWnpp-4">
          <mxGeometry relative="1" as="geometry" />
        </mxCell>
        <mxCell id="-CrBlhv4OkF7-q59_KBk-5" value="bilangan mod 2 = 0" style="rhombus;whiteSpace=wrap;html=1;fontStyle=1" parent="1" vertex="1">
          <mxGeometry x="335" y="390" width="180" height="180" as="geometry" />
        </mxCell>
        <mxCell id="93rVwMdLjO7wPDeEWnpp-1" value="&lt;b&gt;genap&lt;/b&gt;" style="shape=parallelogram;perimeter=parallelogramPerimeter;whiteSpace=wrap;html=1;fixedSize=1;" vertex="1" parent="1">
          <mxGeometry x="560" y="520" width="120" height="60" as="geometry" />
        </mxCell>
        <mxCell id="93rVwMdLjO7wPDeEWnpp-2" value="ya" style="endArrow=none;html=1;rounded=0;exitX=1;exitY=0.5;exitDx=0;exitDy=0;fontStyle=1" edge="1" parent="1" source="-CrBlhv4OkF7-q59_KBk-5">
          <mxGeometry width="50" height="50" relative="1" as="geometry">
            <mxPoint x="610" y="470" as="sourcePoint" />
            <mxPoint x="620" y="480" as="targetPoint" />
          </mxGeometry>
        </mxCell>
        <mxCell id="93rVwMdLjO7wPDeEWnpp-3" value="" style="endArrow=classic;html=1;rounded=0;" edge="1" parent="1" target="93rVwMdLjO7wPDeEWnpp-1">
          <mxGeometry width="50" height="50" relative="1" as="geometry">
            <mxPoint x="620" y="480" as="sourcePoint" />
            <mxPoint x="710" y="410" as="targetPoint" />
          </mxGeometry>
        </mxCell>
        <mxCell id="93rVwMdLjO7wPDeEWnpp-8" value="" style="edgeStyle=orthogonalEdgeStyle;rounded=0;orthogonalLoop=1;jettySize=auto;html=1;" edge="1" parent="1" source="93rVwMdLjO7wPDeEWnpp-4" target="93rVwMdLjO7wPDeEWnpp-7">
          <mxGeometry relative="1" as="geometry" />
        </mxCell>
        <mxCell id="93rVwMdLjO7wPDeEWnpp-4" value="&lt;b&gt;ganjil&lt;/b&gt;" style="shape=parallelogram;perimeter=parallelogramPerimeter;whiteSpace=wrap;html=1;fixedSize=1;fontStyle=1;" vertex="1" parent="1">
          <mxGeometry x="365" y="710" width="120" height="60" as="geometry" />
        </mxCell>
        <mxCell id="93rVwMdLjO7wPDeEWnpp-6" value="" style="endArrow=none;html=1;rounded=0;entryX=0.5;entryY=1;entryDx=0;entryDy=0;" edge="1" parent="1" target="93rVwMdLjO7wPDeEWnpp-1">
          <mxGeometry width="50" height="50" relative="1" as="geometry">
            <mxPoint x="620" y="800" as="sourcePoint" />
            <mxPoint x="780" y="700" as="targetPoint" />
          </mxGeometry>
        </mxCell>
        <mxCell id="93rVwMdLjO7wPDeEWnpp-7" value="selesai" style="ellipse;whiteSpace=wrap;html=1;fontStyle=1;" vertex="1" parent="1">
          <mxGeometry x="385" y="840" width="80" height="80" as="geometry" />
        </mxCell>
        <mxCell id="93rVwMdLjO7wPDeEWnpp-9" value="" style="endArrow=classic;html=1;rounded=0;" edge="1" parent="1">
          <mxGeometry width="50" height="50" relative="1" as="geometry">
            <mxPoint x="620" y="800" as="sourcePoint" />
            <mxPoint x="425" y="800" as="targetPoint" />
          </mxGeometry>
        </mxCell>
      </root>
    </mxGraphModel>
  </diagram>
</mxfile>
